<svg width="671" height="682" viewBox="0 0 671 682" fill="none" xmlns="http://www.w3.org/2000/svg">
<g opacity="0.1">
<path d="M459.703 522.797C459.119 508.683 461.456 489.865 469.049 468.694L382.015 432.234C378.51 431.057 377.342 426.941 378.51 423.413C379.679 419.884 383.767 418.708 387.272 419.884L467.881 453.404C478.395 430.469 491.246 414.591 502.928 404.594L507.601 418.12C497.087 428.117 485.989 442.819 477.227 464.578C468.465 486.336 465.544 504.567 466.129 519.268L459.703 522.797Z" fill="#7FBAC8"/>
<path d="M105.142 239.934C105.726 254.048 103.389 272.866 95.7959 294.037L182.83 330.497C186.335 331.673 187.503 335.79 186.335 339.318C185.166 342.847 181.078 344.023 177.573 342.847L96.9641 309.327C86.45 332.261 73.5993 348.139 61.9169 358.137L57.2439 344.611C67.7581 334.614 78.8564 319.912 87.6182 298.153C96.38 276.395 99.3006 258.164 98.7165 243.463L105.142 239.934Z" fill="#7FBAC8"/>
<path d="M308.416 607.479C318.346 596.893 332.365 585.72 352.809 575.723L316.593 488.1C315.425 484.572 316.593 481.043 320.098 479.279C323.603 478.103 327.108 479.279 328.86 482.807L362.155 563.961C386.104 555.14 405.964 553.376 421.151 554.552L415.31 567.49C401.291 566.902 382.599 569.254 360.987 578.663C339.374 587.484 324.771 598.658 314.841 609.243L308.416 607.479Z" fill="#7FBAC8"/>
<path d="M257.013 155.251C247.083 165.836 233.064 177.01 212.62 187.007L248.835 274.63C250.004 278.158 248.835 281.687 245.331 283.451C241.826 284.627 238.321 283.451 236.569 279.922L203.274 198.768C179.325 207.59 159.465 209.354 144.278 208.178L150.119 195.24C164.138 195.828 182.83 193.476 204.442 184.067C226.055 175.246 240.658 164.072 250.588 153.487L257.013 155.251Z" fill="#7FBAC8"/>
<path d="M141.942 559.845C155.961 559.257 174.652 561.609 195.681 569.254L231.896 482.219C233.065 478.691 237.153 477.515 240.658 478.691C244.163 479.867 245.331 483.984 244.163 487.512L210.284 568.078C233.065 578.663 248.836 591.601 258.766 603.362L245.331 608.067C235.401 597.482 220.798 586.308 199.186 577.487C177.573 568.666 159.465 565.726 144.862 566.314L141.942 559.845Z" fill="#7FBAC8"/>
<path d="M477.811 81.7418C463.792 83.506 445.1 83.506 423.487 77.6253L396.034 168.188C394.866 171.717 391.361 173.481 387.856 172.305C384.351 171.129 382.599 167.6 383.767 164.072L408.884 79.9776C384.935 71.7446 368.58 59.9831 357.482 49.3978L370.332 43.5171C380.847 52.9263 396.618 62.9235 419.399 69.9804C441.595 77.0372 460.287 77.6253 474.306 75.8611L477.811 81.7418Z" fill="#7FBAC8"/>
<path d="M57.8277 407.535C68.3419 417.532 79.4402 431.646 89.3702 452.228L176.404 415.768C179.909 414.592 183.414 415.768 185.166 419.296C186.334 422.825 185.166 426.353 181.661 428.117L101.053 461.637C109.814 485.748 111.567 505.743 110.399 521.033L97.5479 515.152C98.132 501.038 95.7956 482.22 86.4496 460.461C77.6878 438.703 66.5895 424.001 56.0753 414.003L57.8277 407.535Z" fill="#7FBAC8"/>
<path d="M606.317 259.34C594.635 251.107 581.784 238.169 570.102 218.174L488.325 264.632C485.404 266.396 481.316 265.22 479.563 262.28C477.811 259.34 478.979 255.223 481.9 253.459L558.42 210.53C546.737 187.595 542.648 168.188 542.064 152.898L555.499 157.015C556.667 171.129 561.34 189.359 573.023 209.941C584.121 230.524 596.972 243.462 608.654 252.283L606.317 259.34Z" fill="#7FBAC8"/>
<path d="M371.501 101.149C370.333 102.325 345.8 131.729 289.14 133.493V336.378C289.14 339.906 286.22 342.847 282.715 342.847C279.21 342.847 276.289 339.906 276.289 336.378V139.962C218.461 137.609 192.76 107.618 191.592 106.441L201.522 98.2084C201.522 98.7964 226.639 127.024 282.715 127.024C341.127 127.024 366.244 97.0322 366.244 97.0322L371.501 101.149Z" fill="#7FBAC8"/>
<path d="M193.928 661.582C195.096 660.405 219.629 631.002 276.289 629.238V426.353C276.289 422.824 279.21 419.884 282.714 419.884C286.219 419.884 289.14 422.824 289.14 426.353V622.769C346.968 625.121 372.669 655.113 373.837 656.289L363.907 664.522C363.907 663.934 338.79 635.706 282.714 635.706C224.302 635.706 199.185 665.698 199.185 665.698L193.928 661.582Z" fill="#7FBAC8"/>
<path d="M561.34 471.046C560.172 469.87 530.966 445.171 529.214 388.128H327.108C323.603 388.128 320.683 385.188 320.683 381.659C320.683 378.131 323.603 375.19 327.108 375.19H522.204C524.541 316.971 554.331 291.096 555.499 289.92L563.677 299.917C563.093 299.917 535.055 325.204 535.055 381.659C535.055 440.467 564.845 465.754 564.845 465.754L561.34 471.046Z" fill="#7FBAC8"/>
<path d="M4.08885 291.685C5.25709 292.861 34.4631 317.56 36.2155 374.603H237.737C241.242 374.603 244.163 377.543 244.163 381.072C244.163 384.6 241.242 387.54 237.737 387.54H42.6408C40.3044 445.76 10.5142 471.635 9.34594 472.811L1.16824 462.814C1.75236 462.814 29.7902 437.527 29.7902 381.072C29.7902 322.264 0 296.977 0 296.977L4.08885 291.685Z" fill="#7FBAC8"/>
<path d="M618 84.6824C616.248 85.2705 581.2 98.7962 530.382 73.5091L434.002 251.695C432.25 254.635 428.161 255.812 425.24 254.047C422.32 252.283 421.151 248.167 422.904 245.226L516.363 72.921C466.713 42.9293 458.535 4.11651 457.951 2.94036L470.217 0C470.217 0.588072 478.395 37.6366 528.045 64.688C579.448 92.9155 615.664 78.8017 615.664 78.8017L618 84.6824Z" fill="#7FBAC8"/>
<path d="M22.7806 516.328C24.533 516.328 62.5009 513.387 103.973 552.2L246.499 408.711C248.836 406.358 252.924 406.358 255.845 408.711C258.181 411.063 258.181 415.179 255.845 418.12L117.408 556.905C157.129 599.834 153.624 639.235 153.624 640.999L140.773 639.823C140.773 639.235 143.694 601.598 103.389 561.021C61.9168 519.856 23.3648 522.797 22.7806 522.797V516.328Z" fill="#7FBAC8"/>
<path d="M416.478 642.764C416.478 640.999 413.557 602.775 452.109 561.022L309.584 417.532C307.247 415.179 307.247 411.063 309.584 408.123C311.92 405.77 316.009 405.77 318.93 408.123L456.782 546.908C499.423 506.919 538.559 510.447 540.312 510.447L539.143 523.385C538.559 523.385 501.176 520.445 460.871 561.022C419.983 602.775 422.903 641.588 422.903 642.176L416.478 642.764Z" fill="#7FBAC8"/>
<path d="M148.366 119.966C148.366 121.731 151.287 159.955 112.735 201.708L255.261 345.198C257.597 347.55 257.597 351.667 255.261 354.607C252.924 356.96 248.835 356.96 245.915 354.607L108.646 215.234C66.0053 255.223 26.8692 251.695 25.1168 251.695L26.2851 238.757C26.8692 238.757 64.2529 241.697 104.557 201.12C145.446 159.367 142.525 120.554 142.525 119.966H148.366Z" fill="#7FBAC8"/>
</g>
</svg>
