<svg width="50" height="51" viewBox="0 0 50 51" fill="none" xmlns="http://www.w3.org/2000/svg">
<path d="M25.0112 12.3675C17.913 12.3675 12.1876 18.1788 12.1876 25.3835C12.1876 32.5882 17.913 38.3995 25.0112 38.3995C32.1094 38.3995 37.8349 32.5882 37.8349 25.3835C37.8349 18.1788 32.1094 12.3675 25.0112 12.3675ZM25.0112 33.8456C20.4242 33.8456 16.6742 30.0507 16.6742 25.3835C16.6742 20.7163 20.413 16.9214 25.0112 16.9214C29.6094 16.9214 33.3483 20.7163 33.3483 25.3835C33.3483 30.0507 29.5983 33.8456 25.0112 33.8456ZM41.3505 11.8351C41.3505 13.523 40.0112 14.871 38.3594 14.871C36.6965 14.871 35.3684 13.5116 35.3684 11.8351C35.3684 10.1585 36.7077 8.79912 38.3594 8.79912C40.0112 8.79912 41.3505 10.1585 41.3505 11.8351ZM49.8438 14.9163C49.6541 10.8495 48.7389 7.24717 45.8036 4.2792C42.8795 1.31123 39.3304 0.382324 35.3237 0.178418C31.1943 -0.0594727 18.817 -0.0594727 14.6876 0.178418C10.692 0.370996 7.14293 1.2999 4.20766 4.26787C1.27239 7.23584 0.368373 10.8382 0.16748 14.905C-0.0668945 19.0964 -0.0668945 31.6593 0.16748 35.8507C0.357213 39.9175 1.27239 43.5198 4.20766 46.4878C7.14293 49.4558 10.6809 50.3847 14.6876 50.5886C18.817 50.8265 31.1943 50.8265 35.3237 50.5886C39.3304 50.396 42.8795 49.4671 45.8036 46.4878C48.7277 43.5198 49.6429 39.9175 49.8438 35.8507C50.0782 31.6593 50.0782 19.1077 49.8438 14.9163ZM44.509 40.3479C43.6385 42.5683 41.9532 44.2788 39.7545 45.1737C36.4621 46.4991 28.6496 46.1933 25.0112 46.1933C21.3728 46.1933 13.5492 46.4878 10.2679 45.1737C8.08043 44.2901 6.39516 42.5796 5.51346 40.3479C4.20766 37.0062 4.509 29.0765 4.509 25.3835C4.509 21.6905 4.21882 13.7495 5.51346 10.419C6.384 8.19873 8.06927 6.48818 10.2679 5.59326C13.5603 4.26787 21.3728 4.57373 25.0112 4.57373C28.6496 4.57373 36.4733 4.2792 39.7545 5.59326C41.942 6.47686 43.6273 8.1874 44.509 10.419C45.8148 13.7608 45.5135 21.6905 45.5135 25.3835C45.5135 29.0765 45.8148 37.0175 44.509 40.3479Z" fill="#00202C"/>
</svg>
