<svg width="15" height="20" viewBox="0 0 15 20" fill="none" xmlns="http://www.w3.org/2000/svg">
<path d="M7.5 0C3.35816 0 0 3.35816 0 7.50004C0 10.5238 1.05348 11.3685 6.72973 19.5967C7.10207 20.1344 7.89797 20.1344 8.27027 19.5967C13.9465 11.3685 15 10.5238 15 7.50004C15 3.35816 11.6418 0 7.5 0ZM7.5 10.6249C5.77637 10.6249 4.375 9.22355 4.375 7.49992C4.375 5.77629 5.77637 4.37488 7.5 4.37488C9.22363 4.37488 10.625 5.77625 10.625 7.49992C10.625 9.22359 9.22363 10.6249 7.5 10.6249Z" fill="white"/>
</svg>
