<svg width="19" height="19" viewBox="0 0 19 19" fill="none" xmlns="http://www.w3.org/2000/svg">
<path d="M18.6039 14.4083C18.2873 13.8542 17.8123 13.3 17.1789 12.6667C16.7831 12.2708 15.2789 10.8458 14.4081 10.8458C14.0914 10.8458 13.9331 11.0042 13.7748 11.0833L12.5081 12.35C12.5081 12.35 12.4289 12.4292 12.2706 12.4292C11.5581 12.4292 10.1331 11.6375 8.7081 10.2125C6.72894 8.23333 6.3331 6.65 6.5706 6.4125L7.83727 5.14583C7.91644 5.06667 8.07477 4.82917 8.07477 4.5125C8.07477 3.5625 6.72894 2.1375 6.25394 1.74167C5.8581 1.34583 4.4331 0 3.4831 0C3.16644 0 3.0081 0.158333 2.84977 0.2375L0.395603 2.69167C-0.316897 3.40417 -0.0793974 4.82917 1.18727 6.96667C2.2956 8.7875 4.03727 10.925 6.01644 12.9833C9.6581 16.625 13.2998 19.0792 15.1206 19.0792C15.5956 19.0792 15.9123 18.9208 16.2289 18.6833L18.6831 16.2292C19.3164 15.5958 18.7623 14.725 18.6039 14.4083Z" fill="white"/>
</svg>
