<svg width="88" height="125" viewBox="0 0 88 125" fill="none" xmlns="http://www.w3.org/2000/svg">
<path d="M1.55078 86.5967L1.54297 86.5352C1.48464 86.0628 1.43431 85.5857 1.39258 85.1084L1.3916 85.0977L1.31445 84.2725C0.545421 75.5874 0.75306 61.9207 7.04688 47.3135C20.6826 15.6746 52.1283 4.5531 62.291 1.67188C58.4395 7.32778 55.5346 13.5844 53.6973 20.1943L53.6963 20.1973C52.0324 26.265 51.3001 32.5517 51.5244 38.8408L51.5518 39.623L52.3184 39.7842C59.9474 41.3843 66.9902 45.0625 72.6729 50.415C78.3554 55.7676 82.4585 62.5877 84.5312 70.127C86.604 77.6663 86.5663 85.6332 84.4219 93.1523C82.2774 100.671 78.1093 107.452 72.376 112.75C66.6425 118.048 59.5649 121.659 51.9209 123.186C44.277 124.712 36.3612 124.097 29.043 121.406C21.7246 118.716 15.2859 114.054 10.4346 107.933C5.59484 101.826 2.52239 94.5021 1.55078 86.7617V86.5967Z" stroke="#7FBAC8" stroke-width="2"/>
</svg>
