<svg width="15" height="10" viewBox="0 0 15 10" fill="none" xmlns="http://www.w3.org/2000/svg">
<path d="M14.6866 1.56466C14.514 0.948776 14.0058 0.463724 13.3604 0.299115C12.1906 0 7.5 0 7.5 0C7.5 0 2.80939 0 1.6396 0.299115C0.994234 0.46375 0.485952 0.948776 0.31344 1.56466C0 2.68099 0 5.0101 0 5.0101C0 5.0101 0 7.33922 0.31344 8.45555C0.485952 9.07143 0.994234 9.53628 1.6396 9.70089C2.80939 10 7.5 10 7.5 10C7.5 10 12.1906 10 13.3604 9.70089C14.0058 9.53628 14.514 9.07143 14.6866 8.45555C15 7.33922 15 5.0101 15 5.0101C15 5.0101 15 2.68099 14.6866 1.56466ZM5.9659 7.12477V2.89544L9.88634 5.01016L5.9659 7.12477Z" fill="white"/>
</svg>
