<svg width="262" height="55" viewBox="0 0 262 55" fill="none" xmlns="http://www.w3.org/2000/svg">
<g clip-path="url(#clip0_72_71381)">
<path d="M72.6214 52.5756H67.7545L66.8002 54.8099H64.3191L69.0428 44.3042H71.4763L76.2 54.8099H73.6234L72.6214 52.5756ZM71.858 50.7217L70.188 46.6811L68.518 50.7217H71.858Z" fill="#7FBAC8"/>
<path d="M86.9358 52.8609V54.8099H78.7289V44.3042H86.6972V46.2533H81.1623V48.535H86.0769V50.4365H81.1623V52.8609H86.9358Z" fill="#7FBAC8"/>
<path d="M91.4209 54.6672C90.6575 54.4296 90.0372 54.1443 89.5601 53.8116L90.3712 51.9577C90.8006 52.2904 91.3732 52.5756 91.9935 52.7658C92.6138 52.9559 93.2341 53.051 93.8544 53.051C94.5701 53.051 95.0472 52.9559 95.3812 52.7658C95.7152 52.5756 95.8584 52.2904 95.8584 51.9577C95.8584 51.72 95.7629 51.4823 95.5721 51.3397C95.3812 51.1971 95.1427 51.0545 94.8087 50.9594C94.5224 50.8643 94.0929 50.7692 93.5681 50.6266C92.7569 50.4365 92.0889 50.2463 91.6118 50.0562C91.0869 49.866 90.6575 49.5808 90.2758 49.153C89.8941 48.7252 89.7032 48.1547 89.7032 47.4892C89.7032 46.8712 89.8463 46.3008 90.1803 45.8254C90.5143 45.35 90.9915 44.9222 91.6595 44.637C92.3275 44.3518 93.1386 44.2092 94.0929 44.2092C94.7609 44.2092 95.4289 44.3042 96.0492 44.4469C96.6695 44.5895 97.2421 44.8271 97.7192 45.1599L96.9558 47.0138C96.0015 46.4434 94.9995 46.2057 94.0452 46.2057C93.3772 46.2057 92.8524 46.3008 92.5184 46.5385C92.1844 46.7762 92.0412 47.0614 92.0412 47.3941C92.0412 47.7744 92.2321 48.0121 92.6138 48.2023C92.9955 48.3924 93.5681 48.535 94.3315 48.7252C95.1427 48.9153 95.8107 49.1054 96.2878 49.2956C96.8127 49.4857 97.2421 49.771 97.6238 50.1988C98.0055 50.6266 98.1964 51.1495 98.1964 51.8626C98.1964 52.4806 98.0055 53.0035 97.6715 53.5264C97.3375 54.0017 96.8127 54.4296 96.1447 54.7148C95.4767 55 94.6655 55.1426 93.6635 55.1426C92.9955 55 92.1844 54.8574 91.4209 54.6672Z" fill="#7FBAC8"/>
<path d="M103.54 46.2532H100.153V44.2567H109.362V46.2532H105.974V54.8099H103.54V46.2532Z" fill="#7FBAC8"/>
<path d="M121.863 44.3042V54.8099H119.429V50.484H114.61V54.8099H112.177V44.3042H114.61V48.4399H119.429V44.3042H121.863Z" fill="#7FBAC8"/>
<path d="M134.078 52.8609V54.8099H125.918V44.3042H133.887V46.2533H128.352V48.535H133.266V50.4365H128.352V52.8609H134.078Z" fill="#7FBAC8"/>
<path d="M139.708 46.2532H136.32V44.2567H145.529V46.2532H142.141V54.8099H139.708V46.2532Z" fill="#7FBAC8"/>
<path d="M148.344 44.3042H150.778V54.8099H148.344V44.3042Z" fill="#7FBAC8"/>
<path d="M156.933 54.287C156.074 53.8116 155.358 53.1936 154.881 52.3379C154.404 51.5298 154.118 50.5791 154.118 49.5333C154.118 48.4875 154.356 47.5367 154.881 46.7286C155.358 45.9205 156.074 45.255 156.933 44.7796C157.792 44.3042 158.794 44.0666 159.843 44.0666C160.75 44.0666 161.609 44.2092 162.325 44.5419C163.04 44.8747 163.661 45.3025 164.185 45.9205L162.611 47.3466C161.895 46.5385 160.989 46.1106 159.939 46.1106C159.271 46.1106 158.698 46.2532 158.173 46.5385C157.649 46.8237 157.267 47.204 156.981 47.7269C156.694 48.2498 156.551 48.8202 156.551 49.4857C156.551 50.1513 156.694 50.7217 156.981 51.2446C157.267 51.7675 157.649 52.1478 158.173 52.433C158.698 52.7182 159.271 52.8609 159.939 52.8609C160.989 52.8609 161.895 52.433 162.611 51.6249L164.185 53.051C163.661 53.669 163.04 54.1443 162.325 54.4296C161.561 54.7623 160.75 54.9049 159.843 54.9049C158.794 55 157.792 54.7623 156.933 54.287Z" fill="#7FBAC8"/>
<path d="M182.746 54.8099V48.4875L179.645 53.669H178.547L175.446 48.5825V54.7623H173.156V44.3042H175.16L179.12 50.8643L183.033 44.3042H185.037L185.084 54.8099H182.746Z" fill="#7FBAC8"/>
<path d="M197.251 52.8609V54.8099H189.092V44.3042H197.061V46.2533H191.526V48.535H196.44V50.4365H191.526V52.8609H197.251Z" fill="#7FBAC8"/>
<path d="M200.687 44.3042H205.506C206.651 44.3042 207.653 44.5419 208.56 44.9698C209.419 45.3976 210.134 46.0156 210.612 46.8237C211.089 47.6318 211.327 48.535 211.327 49.5808C211.327 50.6266 211.089 51.5774 210.612 52.3379C210.134 53.1461 209.419 53.7641 208.56 54.1919C207.701 54.6197 206.651 54.8574 205.506 54.8574H200.687V44.3042ZM205.363 52.8133C206.413 52.8133 207.272 52.5281 207.892 51.9577C208.512 51.3872 208.846 50.5791 208.846 49.5808C208.846 48.5826 208.512 47.7744 207.892 47.204C207.272 46.6335 206.413 46.3483 205.363 46.3483H203.12V52.8609H205.363V52.8133Z" fill="#7FBAC8"/>
<path d="M214.667 44.3042H217.101V54.8099H214.667V44.3042Z" fill="#7FBAC8"/>
<path d="M223.256 54.287C222.397 53.8116 221.681 53.1936 221.204 52.3379C220.727 51.5298 220.441 50.5791 220.441 49.5333C220.441 48.4875 220.679 47.5367 221.204 46.7286C221.681 45.9205 222.397 45.255 223.256 44.7796C224.115 44.3042 225.117 44.0666 226.167 44.0666C227.073 44.0666 227.932 44.2092 228.648 44.5419C229.363 44.8747 229.984 45.3025 230.509 45.9205L228.934 47.3466C228.218 46.5385 227.312 46.1106 226.262 46.1106C225.594 46.1106 225.021 46.2532 224.497 46.5385C223.972 46.8237 223.59 47.204 223.304 47.7269C223.017 48.2498 222.874 48.8202 222.874 49.4857C222.874 50.1513 223.017 50.7217 223.304 51.2446C223.59 51.7675 223.972 52.1478 224.497 52.433C225.021 52.7182 225.594 52.8609 226.262 52.8609C227.312 52.8609 228.218 52.433 228.934 51.6249L230.509 53.051C229.984 53.669 229.363 54.1443 228.648 54.4296C227.884 54.7623 227.073 54.9049 226.167 54.9049C225.069 55 224.115 54.7623 223.256 54.287Z" fill="#7FBAC8"/>
<path d="M233.658 44.3042H236.091V54.8099H233.658V44.3042Z" fill="#7FBAC8"/>
<path d="M249.833 44.3042V54.8099H247.829L242.58 48.4399V54.8099H240.147V44.3042H242.151L247.399 50.6742V44.3042H249.833Z" fill="#7FBAC8"/>
<path d="M262 52.8609V54.8099H253.841V44.3042H261.809V46.2533H256.274V48.535H261.189V50.4365H256.274V52.8609H262Z" fill="#7FBAC8"/>
<path d="M78.3471 18.7306C79.7786 19.0633 81.0191 19.5387 81.9257 20.2042C82.88 20.8697 83.548 21.6779 83.9774 22.5811C84.4069 23.4843 84.6454 24.4825 84.6454 25.5759C84.6454 26.9069 84.3115 28.0953 83.6434 29.1887C82.9754 30.282 81.878 31.1377 80.4466 31.8032C79.0151 32.4687 77.1543 32.8015 74.864 32.8015H68.0885H65.0825H64.3191V5.46784H65.0825H68.0885H73.7188C75.866 5.51538 77.6314 5.84814 79.0151 6.51365C80.3989 7.13163 81.4009 7.98729 82.0212 9.0331C82.6414 10.0789 82.9754 11.2198 82.9754 12.5033C82.9754 13.8343 82.5937 15.0703 81.878 16.1636C81.1146 17.2569 79.9694 18.1126 78.3471 18.7306ZM73.2894 6.60872H68.1362V18.3978H73.2894C74.3868 18.3978 75.3411 18.1126 76.2477 17.5897C77.1543 17.0668 77.87 16.3538 78.3949 15.4506C78.9197 14.5474 79.206 13.5966 79.206 12.5033C79.206 11.4099 78.9197 10.4592 78.3949 9.556C77.87 8.6528 77.1543 7.93975 76.2477 7.41685C75.3411 6.89394 74.3391 6.60872 73.2894 6.60872ZM74.7686 31.6606C75.9137 31.6606 76.9157 31.3754 77.8223 30.8525C78.7289 30.3295 79.4923 29.569 80.0171 28.6658C80.542 27.7626 80.8283 26.7168 80.8283 25.6234C80.8283 24.5301 80.542 23.4843 80.0171 22.5811C79.4446 21.6779 78.7289 20.9173 77.8223 20.3944C76.9157 19.8715 75.866 19.5862 74.7686 19.5862H68.0885V31.7557H74.7686V31.6606Z" fill="#7FBAC8"/>
<path d="M91.2301 5.46673H92.1843H106.976V6.60761H92.1843V18.9672H105.354V20.108H92.1843V31.707H106.976V32.8004H92.1843H91.2301H88.3672V5.46673H91.2301Z" fill="#7FBAC8"/>
<path d="M121.529 6.65514C120.05 6.65514 118.809 6.89283 117.855 7.32066C116.9 7.79602 116.185 8.36647 115.708 9.12705C115.23 9.88764 114.992 10.6482 114.992 11.5039C114.992 12.1219 115.183 12.7398 115.564 13.3103C115.946 13.8807 116.471 14.4036 117.139 14.9265C117.807 15.4494 118.523 15.9723 119.382 16.4477C120.193 16.9231 121.099 17.446 122.006 17.9214C123.008 18.4443 123.962 19.0147 124.869 19.5851C125.823 20.1556 126.634 20.7736 127.398 21.3915C128.161 22.0095 128.781 22.675 129.211 23.3881C129.688 24.1011 129.879 24.8617 129.879 25.6698C129.879 27.0009 129.497 28.1893 128.686 29.2826C127.875 30.376 126.682 31.2316 125.107 31.8972C123.485 32.5627 121.481 32.8479 119.048 32.8479C117.95 32.8479 116.853 32.6577 115.803 32.325C114.753 31.9922 113.799 31.5644 112.892 31.0415C112.034 30.5186 111.27 29.9957 110.698 29.4728L111.556 28.6171C112.081 29.0925 112.749 29.5203 113.56 29.9957C114.372 30.4711 115.278 30.8513 116.232 31.1366C117.187 31.4693 118.141 31.6119 119.048 31.6119C121.29 31.6119 122.912 31.2316 124.01 30.4235C125.06 29.6154 125.632 28.3794 125.632 26.7156C125.632 26.1452 125.441 25.6223 125.107 25.1469C124.726 24.624 124.248 24.1487 123.628 23.6733C123.008 23.1979 122.292 22.7226 121.481 22.2472C120.67 21.7718 119.859 21.2965 119 20.8211C117.998 20.2507 116.996 19.7277 116.042 19.1098C115.087 18.5393 114.181 17.8738 113.37 17.2558C112.558 16.5903 111.938 15.8773 111.461 15.1642C110.984 14.4036 110.745 13.5955 110.745 12.7398C110.745 11.4088 111.127 10.2204 111.938 9.12705C112.749 8.03371 113.942 7.17805 115.517 6.51253C117.139 5.84702 119.143 5.5618 121.576 5.5618C122.769 5.5618 123.914 5.75195 124.964 6.0847C126.014 6.41746 126.968 6.84529 127.779 7.32066C128.59 7.79602 129.354 8.31893 129.926 8.84183L129.068 9.69749C128.543 9.26966 127.922 8.7943 127.111 8.36647C126.348 7.8911 125.489 7.5108 124.535 7.22558C123.58 6.79775 122.578 6.65514 121.529 6.65514Z" fill="#7FBAC8"/>
<path d="M149.871 6.465C151.303 7.13051 152.4 7.98618 153.068 9.07952C153.736 10.1729 154.07 11.3613 154.07 12.6923C154.07 14.0233 153.736 15.2118 153.068 16.3051C152.4 17.3984 151.303 18.2541 149.871 18.9196C148.44 19.5851 146.579 19.9179 144.289 19.9179H137.513V32.8004H133.696V5.46673H134.459H144.289C146.579 5.46673 148.44 5.79949 149.871 6.465ZM144.193 18.7295C145.291 18.7295 146.34 18.4443 147.247 17.9214C148.153 17.3509 148.917 16.6379 149.442 15.7347C150.014 14.8315 150.253 13.7857 150.253 12.6923C150.253 11.5514 149.967 10.5532 149.442 9.64996C148.869 8.74676 148.153 7.98618 147.247 7.46327C146.34 6.94037 145.291 6.65515 144.193 6.65515H137.513V18.8246H144.193V18.7295Z" fill="#7FBAC8"/>
<path d="M173.633 6.13224C174.921 6.60761 176.019 7.22558 176.973 7.98617C177.927 8.74676 178.691 9.64996 179.311 10.6007C179.931 11.5514 180.456 12.5497 180.79 13.5955C181.172 14.6413 181.41 15.592 181.553 16.5903C181.697 17.5411 181.792 18.4443 181.792 19.2048C181.792 19.9654 181.697 20.8211 181.553 21.7718C181.41 22.7226 181.124 23.7208 180.79 24.7666C180.408 25.8124 179.931 26.7632 179.311 27.7615C178.691 28.7122 177.927 29.6154 176.973 30.376C176.019 31.1366 174.921 31.7545 173.633 32.2299C172.345 32.7053 170.865 32.943 169.195 32.943C167.525 32.943 166.046 32.7053 164.758 32.2299C163.47 31.7545 162.372 31.1366 161.418 30.376C160.464 29.6154 159.7 28.7597 159.08 27.7615C158.46 26.8107 157.935 25.8124 157.601 24.7666C157.219 23.7208 156.981 22.7701 156.837 21.7718C156.694 20.8211 156.599 19.9654 156.599 19.2048C156.599 18.4443 156.694 17.5886 156.837 16.5903C156.981 15.6396 157.267 14.6413 157.601 13.5955C157.983 12.5497 158.46 11.599 159.08 10.6007C159.7 9.60242 160.464 8.7943 161.418 7.98617C162.372 7.22558 163.47 6.60761 164.758 6.13224C166.046 5.65687 167.525 5.46672 169.195 5.46672C170.865 5.41919 172.345 5.65687 173.633 6.13224ZM173.776 29.9957C175.16 28.8548 176.257 27.3336 177.068 25.4322C177.879 23.5307 178.309 21.4391 178.309 19.1098C178.309 16.7805 177.879 14.6889 177.068 12.7874C176.257 10.8859 175.16 9.36474 173.776 8.27139C172.392 7.13051 170.865 6.56007 169.195 6.56007C167.525 6.56007 165.999 7.13051 164.567 8.27139C163.183 9.41227 162.086 10.9334 161.275 12.7874C160.464 14.6889 160.034 16.7805 160.034 19.1098C160.034 21.4391 160.464 23.5307 161.275 25.4322C162.086 27.3336 163.183 28.8548 164.567 29.9957C165.951 31.1366 167.478 31.707 169.195 31.707C170.865 31.707 172.392 31.1366 173.776 29.9957Z" fill="#7FBAC8"/>
<path d="M202.93 5.46673H204.647L193.1 15.8297L204.647 32.8004H200.114L190.285 18.3492L188.615 19.8704V32.8004H184.75V5.46673H188.615V18.3492L202.93 5.46673Z" fill="#7FBAC8"/>
<path d="M211.184 5.46673H212.138H226.93V6.60761H212.138V18.9672H225.308V20.108H212.138V31.707H226.93V32.8004H212.138H211.184H208.321V5.46673H211.184Z" fill="#7FBAC8"/>
<path d="M253.936 22.9602L260.616 14.7364H259.662L253.459 22.3423L247.447 14.9741H247.495C248.974 14.9741 250.215 14.7364 251.169 14.3086C252.123 13.8807 252.839 13.3103 253.268 12.5972C253.698 11.8842 253.936 11.0761 253.936 10.2204C253.936 9.36474 253.698 8.55662 253.268 7.84357C252.839 7.13051 252.123 6.56007 251.169 6.13224C250.215 5.70441 248.974 5.46673 247.495 5.46673H240.958H240.481V23.5307H243.01V14.9741H243.964H244.203L251.837 24.3388L244.918 32.8004H245.873L252.314 24.9093L258.708 32.8004H261.952L253.936 22.9602ZM243.01 14.2135V6.22732H247.399C248.163 6.22732 248.831 6.41746 249.403 6.75022C250.024 7.13051 250.501 7.60588 250.835 8.17632C251.217 8.7943 251.36 9.45981 251.36 10.1729C251.36 10.9335 251.169 11.599 250.835 12.1694C250.453 12.7874 249.976 13.2628 249.403 13.643C248.783 14.0233 248.115 14.2135 247.399 14.2135H243.01Z" fill="#7FBAC8"/>
<path d="M37.5513 42.2602C37.5036 41.1193 37.6944 39.5981 38.3147 37.8868L31.2053 34.9395C30.919 34.8444 30.8235 34.5117 30.919 34.2265C31.0144 33.9412 31.3484 33.8462 31.6347 33.9412L38.2193 36.6508C39.0781 34.7969 40.1279 33.5134 41.0821 32.7053L41.4639 33.7986C40.605 34.6067 39.6984 35.7952 38.9827 37.554C38.267 39.3129 38.0284 40.7865 38.0761 41.9749L37.5513 42.2602Z" fill="#7FBAC8"/>
<path d="M8.58861 19.395C8.63632 20.5359 8.44547 22.057 7.82518 23.7684L14.9346 26.7156C15.2209 26.8107 15.3163 27.1435 15.2209 27.4287C15.1255 27.7139 14.7915 27.809 14.5052 27.7139L7.92061 25.0043C7.06175 26.8582 6.01203 28.1417 5.05774 28.9499L4.67603 27.8565C5.53489 27.0484 6.44146 25.86 7.15718 24.1011C7.87289 22.3423 8.11147 20.8686 8.06375 19.6802L8.58861 19.395Z" fill="#7FBAC8"/>
<path d="M25.1932 49.1054C26.0044 48.2498 27.1495 47.3466 28.8195 46.5385L25.8612 39.4555C25.7658 39.1703 25.8612 38.885 26.1475 38.7424C26.4338 38.6474 26.7201 38.7424 26.8632 39.0277L29.583 45.5877C31.5393 44.8747 33.1616 44.7321 34.4021 44.8271L33.925 45.8729C32.7798 45.8254 31.253 46.0156 29.4875 46.7761C27.7221 47.4892 26.5292 48.3924 25.7181 49.2481L25.1932 49.1054Z" fill="#7FBAC8"/>
<path d="M20.9944 12.5497C20.1832 13.4054 19.0381 14.3086 17.3681 15.1167L20.3263 22.1997C20.4218 22.4849 20.3263 22.7701 20.0401 22.9127C19.7538 23.0078 19.4675 22.9127 19.3243 22.6275L16.6046 16.0674C14.6483 16.7805 13.026 16.9231 11.7855 16.828L12.2626 15.7822C13.4078 15.8297 14.9346 15.6396 16.7 14.879C18.4655 14.1659 19.6583 13.2628 20.4695 12.4071L20.9944 12.5497Z" fill="#7FBAC8"/>
<path d="M11.5946 45.255C12.7398 45.2074 14.2666 45.3976 15.9843 46.0156L18.9426 38.9801C19.0381 38.6949 19.3721 38.5998 19.6583 38.6949C19.9446 38.79 20.0401 39.1227 19.9446 39.4079L17.1772 45.9205C19.0381 46.7761 20.3263 47.822 21.1375 48.7727L20.0401 49.153C19.2289 48.2973 18.0361 47.3941 16.2706 46.6811C14.5052 45.968 13.026 45.7303 11.8332 45.7779L11.5946 45.255Z" fill="#7FBAC8"/>
<path d="M39.0304 6.6076C37.8853 6.75021 36.3584 6.75021 34.593 6.27485L32.3504 13.5955C32.255 13.8807 31.9687 14.0233 31.6824 13.9283C31.3961 13.8332 31.253 13.548 31.3484 13.2627L33.4001 6.46499C31.4438 5.79948 30.1078 4.84874 29.2012 3.99308L30.251 3.51772C31.1098 4.2783 32.3981 5.08643 34.259 5.65687C36.0721 6.22731 37.599 6.27485 38.7441 6.13224L39.0304 6.6076Z" fill="#7FBAC8"/>
<path d="M4.72377 32.943C5.58263 33.7511 6.48921 34.892 7.30035 36.5558L14.4098 33.6085C14.6961 33.5134 14.9824 33.6085 15.1255 33.8937C15.2209 34.1789 15.1255 34.4641 14.8392 34.6067L8.25464 37.3163C8.97036 39.2653 9.1135 40.8816 9.01807 42.1175L7.96835 41.6422C8.01607 40.5013 7.82521 38.9801 7.06178 37.2213C6.34606 35.4624 5.43949 34.274 4.58063 33.4659L4.72377 32.943Z" fill="#7FBAC8"/>
<path d="M49.5276 20.9637C48.5733 20.2982 47.5235 19.2524 46.5693 17.6361L39.8892 21.3915C39.6507 21.5341 39.3167 21.4391 39.1735 21.2014C39.0304 20.9637 39.1258 20.6309 39.3644 20.4883L45.615 17.0181C44.6607 15.1642 44.3267 13.5955 44.279 12.3596L45.3764 12.6923C45.4718 13.8332 45.8535 15.3068 46.8078 16.9706C47.7144 18.6344 48.7641 19.6802 49.7184 20.3933L49.5276 20.9637Z" fill="#7FBAC8"/>
<path d="M30.3464 8.17632C30.2509 8.27139 28.2469 10.6482 23.6186 10.7908V27.191C23.6186 27.4762 23.3801 27.7139 23.0938 27.7139C22.8075 27.7139 22.5689 27.4762 22.5689 27.191V11.3137C17.8452 11.1236 15.7458 8.69922 15.6503 8.60415L16.4615 7.93863C16.4615 7.98617 18.5132 10.2679 23.0938 10.2679C27.8652 10.2679 29.9169 7.84356 29.9169 7.84356L30.3464 8.17632Z" fill="#7FBAC8"/>
<path d="M15.8412 53.4788C15.9366 53.3838 17.9406 51.0069 22.5689 50.8643V34.4641C22.5689 34.1789 22.8075 33.9412 23.0938 33.9412C23.3801 33.9412 23.6186 34.1789 23.6186 34.4641V50.3414C28.3424 50.5316 30.4418 52.9559 30.5372 53.051L29.7261 53.7165C29.7261 53.669 27.6744 51.3872 23.0938 51.3872C18.3223 51.3872 16.2706 53.8116 16.2706 53.8116L15.8412 53.4788Z" fill="#7FBAC8"/>
<path d="M45.8535 38.0769C45.7581 37.9818 43.3724 35.9853 43.2292 31.3742H26.72C26.4338 31.3742 26.1952 31.1366 26.1952 30.8513C26.1952 30.5661 26.4338 30.3284 26.72 30.3284H42.6567C42.8475 25.6223 45.281 23.5307 45.3764 23.4356L46.0444 24.2437C45.9967 24.2437 43.7064 26.2878 43.7064 30.8513C43.7064 35.605 46.1398 37.6491 46.1398 37.6491L45.8535 38.0769Z" fill="#7FBAC8"/>
<path d="M0.334001 23.5782C0.42943 23.6733 2.81515 25.6698 2.9583 30.2809H19.4198C19.7061 30.2809 19.9446 30.5186 19.9446 30.8038C19.9446 31.089 19.7061 31.3267 19.4198 31.3267H3.48315C3.2923 36.0328 0.85886 38.1245 0.763431 38.2195L0.0954289 37.4114C0.143143 37.4114 2.43344 35.3673 2.43344 30.8038C2.43344 26.0501 0 24.006 0 24.006L0.334001 23.5782Z" fill="#7FBAC8"/>
<path d="M50.4819 6.84529C50.3388 6.89283 47.4759 7.98617 43.3247 5.94209L35.4519 20.3457C35.3087 20.5834 34.9747 20.6785 34.7361 20.5359C34.4976 20.3933 34.4021 20.0605 34.5453 19.8228L42.1796 5.89455C38.1239 3.47018 37.4559 0.332757 37.4081 0.237684L38.4102 0C38.4102 0.0475367 39.0782 3.04235 43.1339 5.22904C47.3327 7.5108 50.291 6.36992 50.291 6.36992L50.4819 6.84529Z" fill="#7FBAC8"/>
<path d="M1.86084 41.7373C2.00398 41.7373 5.10542 41.4996 8.49315 44.637L20.1355 33.038C20.3263 32.8479 20.6603 32.8479 20.8989 33.038C21.0898 33.2282 21.0898 33.5609 20.8989 33.7986L9.59058 45.0173C12.8352 48.4875 12.5489 51.6724 12.5489 51.815L11.4992 51.72C11.4992 51.6724 11.7377 48.6301 8.44543 45.35C5.05771 42.0225 1.90855 42.2602 1.86084 42.2602V41.7373Z" fill="#7FBAC8"/>
<path d="M34.0204 51.9576C34.0204 51.815 33.7818 48.7251 36.931 45.35L25.2887 33.7511C25.0978 33.5609 25.0978 33.2282 25.2887 32.9905C25.4795 32.8003 25.8135 32.8003 26.0521 32.9905L37.3127 44.2092C40.7958 40.9767 43.9927 41.2619 44.1359 41.2619L44.0404 42.3077C43.9927 42.3077 40.939 42.07 37.6467 45.35C34.3067 48.7251 34.5453 51.8626 34.5453 51.9101L34.0204 51.9576Z" fill="#7FBAC8"/>
<path d="M12.1194 9.69749C12.1194 9.8401 12.358 12.93 9.20886 16.3051L20.8512 27.9041C21.042 28.0942 21.042 28.427 20.8512 28.6646C20.6603 28.8548 20.3263 28.8548 20.0878 28.6646L8.87486 17.3984C5.39171 20.6309 2.19484 20.3457 2.0517 20.3457L2.14713 19.2999C2.19484 19.2999 5.24856 19.5376 8.54086 16.2576C11.8809 12.8825 11.6423 9.74503 11.6423 9.69749H12.1194Z" fill="#7FBAC8"/>
</g>
<defs>
<clipPath id="clip0_72_71381">
<rect width="262" height="55" fill="white"/>
</clipPath>
</defs>
</svg>
